<svg width="44" height="44" viewBox="0 0 44 44" fill="none" xmlns="http://www.w3.org/2000/svg">
<g clip-path="url(#clip0_28_149)">
<path d="M35.75 14.6667H31.1666V11C31.1666 8.98333 29.5166 7.33333 27.5 7.33333H5.49998C3.48331 7.33333 1.83331 8.98333 1.83331 11V27.5C1.83331 29.5167 3.48331 31.1667 5.49998 31.1667C5.49998 34.21 7.95665 36.6667 11 36.6667C14.0433 36.6667 16.5 34.21 16.5 31.1667H27.5C27.5 34.21 29.9566 36.6667 33 36.6667C36.0433 36.6667 38.5 34.21 38.5 31.1667H40.3333C41.3416 31.1667 42.1666 30.3417 42.1666 29.3333V23.2283C42.1666 22.44 41.91 21.67 41.4333 21.0283L37.2166 15.4C36.8683 14.9417 36.3183 14.6667 35.75 14.6667ZM11 33C9.99165 33 9.16665 32.175 9.16665 31.1667C9.16665 30.1583 9.99165 29.3333 11 29.3333C12.0083 29.3333 12.8333 30.1583 12.8333 31.1667C12.8333 32.175 12.0083 33 11 33ZM35.75 17.4167L39.3433 22H31.1666V17.4167H35.75ZM33 33C31.9916 33 31.1666 32.175 31.1666 31.1667C31.1666 30.1583 31.9916 29.3333 33 29.3333C34.0083 29.3333 34.8333 30.1583 34.8333 31.1667C34.8333 32.175 34.0083 33 33 33Z" fill="#00486C"/>
</g>
<defs>
<clipPath id="clip0_28_149">
<rect width="44" height="44" fill="white"/>
</clipPath>
</defs>
</svg>
