<svg width="40" height="40" viewBox="0 0 40 40" fill="none" xmlns="http://www.w3.org/2000/svg">
<g clip-path="url(#clip0_28_554)">
<path d="M34.1667 31.6667H5.8334C4.91673 31.6667 4.16673 32.4167 4.16673 33.3333C4.16673 34.25 4.91673 35 5.8334 35H34.1667C35.0834 35 35.8334 34.25 35.8334 33.3333C35.8334 32.4167 35.0834 31.6667 34.1667 31.6667ZM36.7834 16.0667C36.4167 14.7333 35.0501 13.95 33.7167 14.3L24.8667 16.6667L14.1001 6.63335C13.6501 6.20001 13.0001 6.05001 12.4001 6.21668C11.2667 6.53335 10.7334 7.83334 11.3167 8.85001L17.0501 18.7833L8.76673 21L6.15006 18.9333C5.7334 18.6167 5.20006 18.5 4.6834 18.6333L4.1334 18.7833C3.60006 18.9167 3.35006 19.5333 3.6334 20L6.76673 25.4167C7.15006 26.0667 7.91673 26.3833 8.6334 26.2L35.0001 19.1333C36.3334 18.7667 37.1334 17.4 36.7834 16.0667Z" fill="#00486C"/>
</g>
<defs>
<clipPath id="clip0_28_554">
<rect width="40" height="40" fill="white"/>
</clipPath>
</defs>
</svg>
